<svg xmlns="http://www.w3.org/2000/svg" xmlns:xlink="http://www.w3.org/1999/xlink" width="700" zoomAndPan="magnify" viewBox="0 0 525 525.000007" height="700" preserveAspectRatio="xMidYMid meet" version="1.0"><defs><g/><clipPath id="8cf75d72b0"><path d="M 94.164062 354 L 337 354 L 337 383 L 94.164062 383 Z M 94.164062 354 " clip-rule="nonzero"/></clipPath><clipPath id="fb856b775f"><path d="M 173 52.398438 L 225 52.398438 L 225 117 L 173 117 Z M 173 52.398438 " clip-rule="nonzero"/></clipPath><clipPath id="9f40ab0f85"><path d="M 145 52.398438 L 178 52.398438 L 178 104 L 145 104 Z M 145 52.398438 " clip-rule="nonzero"/></clipPath></defs><g clip-path="url(#8cf75d72b0)"><path fill="#ff1616" d="M 301.425781 357.722656 C 298.847656 355.496094 295.554688 354.285156 292.152344 354.410156 L 145.597656 359.921875 C 144.273438 359.957031 144.128906 361.863281 145.425781 362.101562 L 192.921875 370.726562 L 95.542969 379.488281 C 94.1875 379.609375 94.273438 381.621094 95.636719 381.628906 L 334.792969 382.945312 C 336.957031 382.957031 337.609375 380.011719 335.640625 379.117188 C 326.863281 375.121094 313.375 368.019531 301.425781 357.722656 " fill-opacity="1" fill-rule="nonzero"/></g><path fill="#ff1616" d="M 293.082031 193.582031 C 296.003906 188.148438 299.304688 185.734375 299.558594 185.488281 C 301.035156 184.042969 301.824219 182.300781 301.777344 180.210938 C 301.703125 177.351562 300.769531 174.78125 299.195312 172.433594 C 298.082031 170.769531 296.617188 169.367188 295.019531 168.167969 C 291.589844 165.597656 288.160156 163.03125 284.773438 160.410156 C 275.558594 153.28125 267.015625 145.390625 258.808594 137.121094 C 254.335938 132.617188 244.914062 122.742188 244.578125 122.414062 L 244.574219 122.414062 C 264.71875 152.335938 285.058594 171.097656 288.945312 192.941406 C 289.316406 195.03125 292.082031 195.449219 293.082031 193.582031 " fill-opacity="1" fill-rule="nonzero"/><g clip-path="url(#fb856b775f)"><path fill="#ff1616" d="M 183.554688 83.105469 C 188.878906 88.648438 194.585938 93.769531 200.511719 98.648438 C 208.027344 104.835938 224.296875 116.613281 224.546875 116.769531 C 224.933594 116.605469 224.789062 116.3125 224.78125 116.070312 C 224.75 115.226562 224.664062 114.375 224.679688 113.527344 C 224.691406 112.832031 224.429688 112.335938 223.941406 111.855469 C 221.933594 109.894531 183.726562 71.539062 183.632812 71.132812 C 183.628906 71.132812 183.621094 71.128906 183.617188 71.128906 C 183.617188 71.121094 183.617188 71.117188 183.617188 71.109375 C 183.496094 71.023438 183.488281 70.976562 183.59375 70.984375 C 183.605469 70.988281 183.609375 71.058594 183.617188 71.109375 C 183.621094 71.113281 183.625 71.117188 183.628906 71.121094 C 183.628906 71.125 183.632812 71.128906 183.632812 71.132812 C 183.636719 71.132812 183.640625 71.132812 183.644531 71.136719 C 183.632812 71.105469 183.617188 71.078125 183.613281 71.042969 C 183.625 71.074219 183.640625 71.105469 183.65625 71.136719 C 183.984375 71.21875 212.039062 96.644531 222.617188 106.167969 C 222.890625 106.414062 223.144531 106.703125 223.445312 106.910156 C 223.726562 107.105469 223.90625 107.605469 224.332031 107.429688 C 224.640625 107.296875 224.585938 106.875 224.644531 106.570312 C 225.050781 104.453125 225.046875 104.449219 223.597656 102.917969 C 208.089844 86.472656 192.578125 70.023438 177.0625 53.582031 C 176.679688 53.171875 176.351562 52.679688 175.839844 52.4375 C 175.734375 52.515625 175.679688 52.535156 175.667969 52.574219 C 174.679688 55.5 173.882812 58.472656 173.742188 61.582031 C 173.539062 66.234375 174.773438 70.511719 177.019531 74.527344 C 178.796875 77.699219 181.050781 80.5 183.554688 83.105469 " fill-opacity="1" fill-rule="nonzero"/></g><path fill="#ff1616" d="M 177.550781 81.132812 C 177.351562 80.898438 177.199219 80.597656 176.832031 80.542969 C 176.429688 81.214844 176.527344 81.984375 176.441406 82.707031 C 175.9375 86.941406 175.84375 91.179688 176.5625 95.402344 C 176.6875 96.132812 176.863281 96.855469 176.992188 97.585938 C 177.460938 100.179688 178.734375 102.347656 180.484375 104.265625 C 182.730469 106.730469 185.179688 108.992188 187.726562 111.140625 C 192.296875 115.003906 197.179688 118.4375 202.101562 121.828125 C 211.945312 128.59375 222 135.042969 231.988281 141.59375 C 232.871094 142.167969 233.773438 142.722656 234.6875 143.25 C 235.214844 143.5625 235.429688 143.394531 235.410156 142.75 C 235.339844 140.40625 234.519531 138.398438 232.765625 136.824219 C 232.332031 136.433594 231.882812 136.0625 231.429688 135.703125 C 219.164062 125.984375 186.8125 100.519531 186.644531 100.367188 C 186.613281 100.339844 186.617188 100.273438 186.605469 100.226562 C 186.695312 100.203125 231.066406 130.777344 231.175781 130.699219 C 230.140625 129.359375 229.070312 128.046875 228.066406 126.675781 C 227.128906 125.394531 226.234375 124.070312 225.820312 122.5 C 225.679688 121.964844 225.25 121.75 224.882812 121.476562 C 223.011719 120.097656 203.535156 105.722656 196.082031 99.371094 C 189.472656 93.738281 183.199219 87.753906 177.550781 81.132812 " fill-opacity="1" fill-rule="nonzero"/><path fill="#ff1616" d="M 186.269531 114.382812 C 186.144531 114.285156 185.996094 114.222656 185.859375 114.144531 C 185.667969 114.222656 185.472656 114.300781 185.28125 114.378906 C 186.484375 119.882812 187.816406 125.34375 190.140625 130.5 C 190.597656 131.515625 191.132812 132.492188 191.632812 133.492188 C 193.003906 136.226562 195.109375 138.285156 197.714844 139.800781 C 200.003906 141.132812 202.34375 142.363281 204.6875 143.585938 C 209.277344 145.980469 213.871094 148.378906 218.496094 150.714844 C 223.214844 153.097656 227.957031 155.445312 232.726562 157.726562 C 234.871094 158.75 237.109375 159.585938 239.308594 160.492188 C 240.824219 161.113281 242.351562 161.710938 243.882812 162.3125 C 244.058594 162.382812 244.265625 162.519531 244.445312 162.3125 C 244.621094 162.121094 244.492188 161.914062 244.4375 161.71875 C 244.421875 161.667969 244.40625 161.617188 244.390625 161.566406 C 243.851562 159.722656 243.84375 159.738281 242.1875 158.714844 C 231.847656 152.324219 201.050781 133.273438 200.84375 133.117188 C 200.742188 133.042969 200.558594 132.984375 200.691406 132.8125 C 200.730469 132.765625 200.886719 132.789062 200.984375 132.8125 C 201.25 132.875 231.140625 149.625 238.21875 153.53125 C 239.328125 154.144531 240.429688 154.769531 241.542969 155.386719 C 241.804688 155.535156 242.054688 155.75 242.394531 155.640625 C 242.40625 155.539062 242.4375 155.425781 242.417969 155.328125 C 242.226562 154.453125 242.179688 153.492188 241.78125 152.71875 C 241.402344 151.984375 240.476562 151.691406 239.773438 151.226562 C 231.03125 145.480469 222.273438 139.761719 213.554688 133.980469 C 204.210938 127.792969 195.023438 121.390625 186.269531 114.382812 " fill-opacity="1" fill-rule="nonzero"/><path fill="#ff1616" d="M 217.390625 154.839844 C 213.894531 153.089844 210.433594 151.265625 206.953125 149.484375 C 205.355469 148.664062 203.742188 147.875 202.128906 147.078125 C 201.953125 146.992188 201.742188 146.957031 201.570312 146.902344 C 201.40625 147.085938 201.453125 147.234375 201.507812 147.386719 C 202.328125 149.570312 203.121094 151.761719 203.976562 153.9375 C 204.539062 155.367188 205.261719 156.730469 206.082031 158.03125 C 208.121094 161.285156 210.964844 163.542969 214.523438 164.945312 C 220.382812 167.253906 242.65625 175.019531 247.941406 176.542969 C 249.519531 176.992188 251.078125 177.492188 252.585938 177.953125 C 252.9375 177.652344 252.777344 177.402344 252.703125 177.164062 C 252.554688 176.710938 252.355469 176.269531 252.253906 175.804688 C 252.101562 175.167969 251.695312 174.824219 251.121094 174.59375 C 249.699219 174.019531 214.84375 159.359375 214.84375 159.359375 C 214.703125 159.320312 214.550781 159.292969 214.417969 159.230469 C 214.335938 159.191406 214.285156 159.097656 214.21875 159.027344 C 214.3125 159.007812 246.277344 169.6875 246.617188 169.40625 C 245.367188 168.503906 220.558594 156.425781 217.390625 154.839844 " fill-opacity="1" fill-rule="nonzero"/><path fill="#ff1616" d="M 237.007812 188.320312 C 239.839844 188.984375 253.121094 192.148438 256.9375 193.019531 C 258.742188 193.433594 260.550781 193.835938 262.355469 194.242188 C 262.601562 194.296875 262.847656 194.332031 263.113281 194.382812 C 263.269531 193.839844 262.996094 193.476562 262.867188 193.09375 C 262.59375 192.289062 262.273438 191.503906 261.996094 190.699219 C 261.851562 190.257812 261.605469 189.992188 261.136719 189.875 C 260.007812 189.597656 233.703125 182.484375 233.570312 182.417969 C 233.496094 182.386719 255.097656 185.21875 255.136719 185.035156 C 254.261719 184.667969 219.664062 172.539062 218.898438 172.335938 C 218.875 172.328125 218.828125 172.394531 218.785156 172.433594 C 218.710938 172.730469 221.910156 177.078125 223.363281 179.03125 C 225.847656 182.363281 228.957031 184.949219 232.6875 186.753906 C 234.0625 187.421875 235.5 187.96875 237.007812 188.320312 " fill-opacity="1" fill-rule="nonzero"/><path fill="#ff1616" d="M 244.015625 199.808594 C 246.648438 203.546875 250.195312 205.808594 254.761719 206.449219 C 257.535156 206.835938 260.296875 207.359375 263.066406 207.789062 C 265.25 208.125 267.445312 208.402344 269.648438 208.714844 C 269.644531 207.90625 269.261719 206.070312 269.027344 205.542969 C 268.902344 205.277344 268.6875 205.152344 268.421875 205.085938 C 267.703125 204.90625 253.203125 201.136719 253.214844 200.984375 C 253.230469 200.804688 253.664062 200.953125 253.664062 200.953125 C 254.199219 201.082031 266.597656 201.65625 266.792969 201.289062 C 257.972656 198.492188 249.128906 195.886719 240.207031 193.582031 C 240.023438 193.992188 240.261719 194.175781 240.394531 194.382812 C 241.59375 196.195312 242.765625 198.027344 244.015625 199.808594 " fill-opacity="1" fill-rule="nonzero"/><path fill="#ff1616" d="M 253.292969 216.859375 C 256.03125 219.933594 259.4375 221.589844 263.585938 221.6875 C 266.109375 221.746094 268.632812 221.9375 271.152344 222.03125 C 273.140625 222.105469 275.128906 222.132812 277.132812 222.179688 C 277.050781 221.457031 276.519531 219.851562 276.25 219.410156 C 276.113281 219.183594 275.910156 219.09375 275.664062 219.0625 C 275.003906 218.972656 261.648438 217.101562 261.640625 216.957031 C 261.636719 216.800781 262.039062 216.886719 262.039062 216.886719 C 262.53125 216.949219 273.675781 216.183594 273.816406 215.832031 C 265.640625 214.242188 257.460938 212.824219 249.246094 211.679688 C 249.125 212.066406 249.355469 212.210938 249.5 212.378906 C 250.753906 213.875 251.992188 215.394531 253.292969 216.859375 " fill-opacity="1" fill-rule="nonzero"/><path fill="#ff1616" d="M 256.472656 147.222656 L 256.472656 147.21875 C 256.46875 147.070312 243.820312 138.125 237.445312 133.90625 C 237.113281 134.226562 237.308594 134.46875 237.378906 134.675781 C 238.078125 136.796875 238.757812 138.921875 239.523438 141.015625 C 241.15625 145.488281 244.242188 148.667969 248.523438 150.585938 C 252.140625 152.207031 261.273438 155.503906 261.503906 155.308594 C 257.484375 152.507812 245.140625 143.917969 245.140625 143.917969 C 245.097656 143.914062 245.035156 143.921875 245 143.898438 C 244.886719 143.816406 244.78125 143.71875 244.671875 143.628906 C 244.828125 143.445312 256.070312 147.09375 256.472656 147.222656 " fill-opacity="1" fill-rule="nonzero"/><path fill="#ff1616" d="M 268.109375 166.574219 C 267.972656 166.359375 252.84375 157.828125 248.144531 155.3125 C 247.6875 155.070312 247.210938 154.851562 246.753906 154.628906 C 246.683594 154.75 246.628906 154.796875 246.636719 154.832031 C 248.0625 160.039062 247.136719 161.957031 251.679688 164.910156 C 253.066406 165.804688 272.609375 174.511719 272.652344 174.382812 C 267.808594 171.226562 257.511719 164.492188 257.207031 164.28125 C 257.207031 164.28125 256.757812 164.21875 256.777344 163.945312 C 256.789062 163.785156 265.09375 165.808594 268.109375 166.574219 " fill-opacity="1" fill-rule="nonzero"/><path fill="#ff1616" d="M 233.5625 126.765625 C 233.5625 126.765625 249.160156 135.554688 249.523438 135.640625 C 249.523438 135.640625 233.476562 122.550781 233.382812 122.519531 C 233.417969 122.449219 233.445312 122.320312 233.492188 122.3125 C 233.863281 122.253906 242.152344 124.933594 243.203125 125.039062 C 243.40625 124.667969 227.433594 111.480469 227.433594 111.480469 C 227.082031 111.550781 227.074219 111.875 226.960938 112.121094 C 227.6875 115.914062 228.757812 119.617188 229.925781 123.296875 C 230.496094 125.097656 231.816406 126.179688 233.5625 126.765625 " fill-opacity="1" fill-rule="nonzero"/><path fill="#ff1616" d="M 266.453125 180.121094 C 266.605469 180.136719 275.441406 181.527344 276.621094 181.714844 C 276.695312 181.582031 260.011719 174.359375 257.804688 173.480469 C 257.464844 173.347656 257.105469 173.265625 256.761719 173.160156 C 256.507812 173.433594 256.691406 173.667969 256.796875 173.890625 C 257.304688 174.941406 257.820312 175.984375 258.34375 177.023438 C 260.171875 180.609375 263.03125 182.972656 266.835938 184.179688 C 269.101562 184.894531 280.894531 187.675781 280.898438 187.570312 C 277.886719 186.09375 266.523438 180.496094 266.382812 180.4375 C 266.300781 180.398438 266.246094 180.308594 266.183594 180.238281 C 266.140625 180.226562 266.097656 180.21875 266.054688 180.207031 C 266.09375 180.207031 266.128906 180.210938 266.167969 180.21875 C 266.265625 180.183594 266.363281 180.113281 266.453125 180.121094 " fill-opacity="1" fill-rule="nonzero"/><path fill="#ff1616" d="M 285.570312 200.644531 C 284.214844 199.726562 277.191406 196.355469 275.15625 195.355469 C 274.875 195.21875 274.621094 195.035156 274.347656 194.867188 C 274.214844 194.824219 274.070312 194.800781 273.945312 194.734375 C 273.882812 194.699219 273.871094 194.585938 273.835938 194.507812 C 273.878906 194.496094 273.929688 194.46875 273.972656 194.476562 C 274.164062 194.511719 281.746094 195.113281 283.53125 195.292969 C 283.375 194.902344 272.925781 191.339844 268.59375 189.949219 C 268.089844 189.785156 267.578125 189.648438 267.070312 189.507812 C 266.859375 189.453125 266.640625 189.667969 266.695312 189.875 C 267.273438 191.929688 267.941406 193.941406 269.296875 195.632812 C 270.175781 196.738281 271.296875 197.53125 272.609375 198.011719 C 273.648438 198.390625 285.570312 200.757812 285.570312 200.644531 " fill-opacity="1" fill-rule="nonzero"/><g clip-path="url(#9f40ab0f85)"><path fill="#ff1616" d="M 154.957031 83.105469 C 160.277344 88.648438 165.984375 93.769531 171.910156 98.648438 C 173.46875 99.933594 175.40625 101.457031 177.5 103.070312 C 176.421875 101.421875 175.714844 99.707031 175.386719 97.875 C 175.328125 97.546875 175.265625 97.226562 175.195312 96.90625 C 175.109375 96.496094 175.023438 96.085938 174.953125 95.671875 C 174.695312 94.152344 174.558594 92.5625 174.488281 90.933594 C 164.664062 81.042969 155.078125 71.339844 155.027344 71.132812 C 155.023438 71.132812 155.019531 71.128906 155.015625 71.128906 C 155.011719 71.121094 155.011719 71.117188 155.011719 71.109375 C 154.894531 71.023438 154.886719 70.976562 154.988281 70.984375 C 155 70.988281 155.003906 71.058594 155.011719 71.109375 C 155.015625 71.113281 155.019531 71.117188 155.027344 71.121094 C 155.027344 71.125 155.027344 71.128906 155.027344 71.132812 C 155.03125 71.132812 155.035156 71.132812 155.039062 71.136719 C 155.027344 71.105469 155.015625 71.078125 155.007812 71.042969 C 155.023438 71.074219 155.035156 71.105469 155.050781 71.136719 C 155.242188 71.183594 164.542969 79.558594 174.441406 88.496094 C 174.460938 86.589844 174.570312 84.613281 174.824219 82.515625 C 174.84375 82.355469 174.851562 82.195312 174.855469 82.035156 C 174.863281 81.898438 174.875 81.75 174.886719 81.59375 C 166.078125 72.253906 157.273438 62.914062 148.464844 53.582031 C 148.078125 53.171875 147.753906 52.679688 147.238281 52.4375 C 147.136719 52.515625 147.074219 52.535156 147.0625 52.574219 C 146.078125 55.5 145.285156 58.472656 145.144531 61.582031 C 144.9375 66.234375 146.175781 70.511719 148.421875 74.527344 C 150.191406 77.699219 152.453125 80.5 154.957031 83.105469 " fill-opacity="1" fill-rule="nonzero"/></g><path fill="#ff1616" d="M 184.664062 112.871094 L 184.714844 112.851562 C 178.5 108.160156 171.359375 102.679688 167.484375 99.371094 C 160.871094 93.738281 154.597656 87.753906 148.953125 81.132812 C 148.75 80.898438 148.59375 80.597656 148.230469 80.542969 C 147.824219 81.214844 147.925781 81.984375 147.839844 82.707031 C 147.335938 86.941406 147.246094 91.179688 147.960938 95.402344 C 148.085938 96.132812 148.261719 96.855469 148.394531 97.585938 C 148.859375 100.179688 150.136719 102.347656 151.878906 104.265625 C 154.132812 106.730469 156.574219 108.992188 159.125 111.140625 C 163.699219 115.003906 168.578125 118.4375 173.5 121.828125 C 178.699219 125.398438 183.957031 128.882812 189.234375 132.339844 C 189.035156 131.949219 188.835938 131.5625 188.652344 131.167969 C 187.285156 128.136719 186.273438 125.035156 185.429688 121.964844 C 172.300781 111.609375 158.15625 100.472656 158.046875 100.367188 C 158.011719 100.339844 158.015625 100.273438 158.003906 100.226562 C 158.054688 100.210938 172.183594 109.925781 184.519531 118.390625 C 184.226562 117.160156 183.953125 115.933594 183.6875 114.726562 C 183.515625 113.953125 183.929688 113.167969 184.664062 112.871094 " fill-opacity="1" fill-rule="nonzero"/><path fill="#ff1616" d="M 163.027344 133.492188 C 164.40625 136.226562 166.511719 138.285156 169.117188 139.800781 C 171.398438 141.132812 173.742188 142.363281 176.085938 143.585938 C 180.675781 145.980469 185.273438 148.378906 189.894531 150.714844 C 194.558594 153.070312 199.246094 155.386719 203.957031 157.644531 C 203.359375 156.585938 202.859375 155.558594 202.457031 154.53125 C 202 153.363281 201.5625 152.183594 201.125 151.007812 C 188.328125 143.09375 172.394531 133.230469 172.242188 133.117188 C 172.136719 133.042969 171.957031 132.984375 172.089844 132.8125 C 172.125 132.765625 172.289062 132.789062 172.382812 132.8125 C 172.578125 132.859375 188.707031 141.878906 200.082031 148.230469 L 199.984375 147.953125 C 199.589844 146.902344 200.046875 146.164062 200.355469 145.820312 C 200.777344 145.34375 201.441406 145.15625 202.046875 145.347656 C 202.140625 145.371094 202.238281 145.398438 202.332031 145.425781 C 196.53125 141.621094 190.734375 137.8125 184.949219 133.980469 C 175.613281 127.792969 166.425781 121.390625 157.667969 114.382812 C 157.546875 114.285156 157.394531 114.222656 157.257812 114.144531 C 157.0625 114.222656 156.871094 114.300781 156.679688 114.378906 C 157.882812 119.882812 159.214844 125.34375 161.539062 130.5 C 161.996094 131.515625 162.53125 132.492188 163.027344 133.492188 " fill-opacity="1" fill-rule="nonzero"/><path fill="#ff1616" d="M 175.371094 153.9375 C 175.9375 155.367188 176.664062 156.730469 177.480469 158.03125 C 179.523438 161.285156 182.363281 163.542969 185.921875 164.945312 C 191.78125 167.253906 214.050781 175.019531 219.339844 176.542969 C 219.410156 176.5625 219.480469 176.582031 219.550781 176.601562 C 217.359375 173.570312 217.070312 172.902344 217.140625 172.34375 C 207.015625 168.097656 186.246094 159.359375 186.246094 159.359375 C 186.101562 159.320312 185.949219 159.292969 185.816406 159.230469 C 185.734375 159.191406 185.683594 159.097656 185.617188 159.027344 C 185.710938 159.007812 217.675781 169.6875 218.015625 169.40625 C 216.765625 168.503906 191.957031 156.425781 188.792969 154.839844 C 185.292969 153.089844 181.832031 151.265625 178.355469 149.484375 C 176.753906 148.664062 175.140625 147.875 173.53125 147.078125 C 173.347656 146.992188 173.140625 146.957031 172.96875 146.902344 C 172.808594 147.085938 172.855469 147.234375 172.910156 147.386719 C 173.722656 149.570312 174.515625 151.761719 175.371094 153.9375 " fill-opacity="1" fill-rule="nonzero"/><path fill="#ff1616" d="M 204.082031 186.753906 C 205.460938 187.421875 206.898438 187.96875 208.40625 188.320312 C 211.082031 188.949219 231.578125 192.84375 232.078125 192.695312 C 234.222656 191.707031 231.648438 189.652344 231.417969 189.582031 C 230.59375 189.324219 229.742188 189.132812 228.910156 188.910156 C 226.375 188.226562 223.835938 187.542969 221.300781 186.859375 C 216.355469 185.519531 211.40625 184.191406 206.464844 182.832031 C 205.996094 182.707031 205.414062 182.632812 204.96875 182.417969 C 204.894531 182.386719 226.496094 185.21875 226.539062 185.035156 C 225.660156 184.667969 191.066406 172.539062 190.300781 172.335938 C 190.273438 172.328125 190.226562 172.394531 190.183594 172.433594 C 190.109375 172.730469 193.304688 177.078125 194.765625 179.03125 C 197.246094 182.363281 200.359375 184.949219 204.082031 186.753906 " fill-opacity="1" fill-rule="nonzero"/><path fill="#ff1616" d="M 418.949219 360.9375 C 418.898438 361.132812 418.84375 361.320312 418.785156 361.515625 C 418.042969 363.90625 416.605469 366.039062 414.859375 367.835938 C 408.609375 374.261719 399.070312 375.5625 390.527344 375.636719 C 386.519531 375.667969 381.792969 376.105469 378.433594 373.503906 C 375.613281 371.316406 374.863281 367.648438 374.042969 364.367188 C 372.921875 359.890625 371.132812 355.601562 369.003906 351.515625 C 361.550781 337.214844 350.234375 325.015625 338.84375 313.765625 C 343.652344 312.441406 348.496094 311.527344 353.421875 311.675781 C 353.730469 312.015625 354.035156 312.355469 354.34375 312.691406 C 359.636719 318.398438 366.089844 322.832031 372.652344 326.945312 C 378.054688 330.335938 383.34375 334.089844 389.339844 336.390625 C 395.757812 338.851562 402.429688 340.574219 409.011719 342.628906 C 415.289062 344.589844 418.96875 347.988281 419.386719 354.53125 C 419.523438 356.671875 419.488281 358.863281 418.949219 360.9375 Z M 359.8125 363.316406 C 357.125 365.402344 353.5 365.789062 350.09375 365.695312 C 337.902344 365.367188 326.8125 359.300781 317.167969 352.339844 C 308.488281 346.074219 300.332031 339.039062 292.808594 331.425781 C 290.296875 328.425781 287.621094 325.558594 284.828125 322.792969 C 297.621094 323.6875 310.582031 322.339844 322.871094 318.753906 C 326.910156 317.578125 330.941406 316.15625 335 314.894531 C 340.519531 320.269531 345.890625 325.8125 350.90625 331.660156 C 355.363281 336.859375 361.011719 343.550781 363.019531 350.183594 C 364.414062 354.769531 363.601562 360.378906 359.8125 363.316406 Z M 264.125 311.980469 C 265.351562 312.417969 265.042969 314.246094 263.738281 314.246094 C 261.089844 314.242188 257.675781 314.066406 253.757812 313.476562 C 241.289062 311.597656 228.789062 307.078125 218.046875 300.304688 C 205.421875 292.339844 192.277344 282.671875 182.714844 270.898438 C 176.765625 263.582031 178.285156 252.558594 183.789062 245.398438 C 187.394531 240.710938 191.738281 235.578125 196.320312 231.8125 L 197.609375 230.746094 C 194.136719 238.929688 193.148438 248.144531 194.925781 257.082031 C 198.902344 277.089844 218.433594 289.886719 234.9375 299.453125 C 242.929688 304.089844 256.539062 309.253906 264.125 311.980469 Z M 220.589844 211.753906 C 223.351562 209.472656 226.578125 205.007812 230.355469 205.097656 C 234.773438 205.203125 238.21875 208.378906 238.445312 212.722656 C 238.667969 216.816406 239.097656 220.191406 240.894531 223.984375 C 242.34375 227.03125 242 232.34375 242.09375 235.671875 C 242.195312 239.265625 242.046875 242.867188 241.660156 246.433594 C 240.957031 252.882812 239.460938 259.226562 237.339844 265.351562 C 235.632812 270.273438 233.519531 275.035156 231.214844 279.703125 C 228.347656 285.523438 221.453125 285.730469 216.140625 282.457031 C 206.96875 276.804688 200.460938 267.300781 198.289062 256.371094 C 198.179688 255.820312 198.078125 255.269531 197.996094 254.714844 C 195.878906 241.238281 201.410156 227.6875 211.902344 218.960938 C 214.921875 216.453125 218.28125 213.664062 220.589844 211.753906 Z M 329.894531 310 C 323.160156 311.859375 316.421875 313.65625 309.492188 314.535156 C 302.082031 315.476562 294.308594 314.90625 286.917969 315.199219 C 278.921875 315.519531 271.050781 309.730469 264.324219 306.125 C 258.511719 303.003906 252.777344 299.71875 246.816406 296.878906 C 242.082031 294.613281 236.507812 292.152344 235.089844 286.40625 C 234.542969 284.179688 235.566406 282.667969 236.445312 280.585938 C 238.335938 276.105469 240.113281 271.582031 241.582031 266.945312 C 245.21875 255.476562 246.992188 243.328125 245.289062 231.34375 C 255.109375 245.253906 274.246094 261.578125 295.242188 279.480469 C 306.953125 289.46875 318.6875 299.449219 329.894531 310 Z M 253.8125 229.011719 C 253.84375 229.03125 253.875 229.050781 253.90625 229.066406 C 261.191406 233.046875 275.234375 232.742188 285.484375 232.519531 C 289.113281 232.445312 292.839844 232.363281 295.089844 232.539062 L 295.144531 232.542969 C 295.949219 232.609375 296.5625 232.707031 296.90625 232.851562 C 297.183594 232.96875 297.453125 233.09375 297.726562 233.222656 C 301.261719 234.902344 304.246094 238.007812 306.136719 241.964844 C 311.652344 253.53125 317.984375 264.703125 325.042969 275.398438 C 328.550781 280.710938 332.234375 285.902344 336.09375 290.96875 C 338.65625 294.335938 345.726562 300.109375 342.839844 304.929688 C 341.246094 307.59375 336.558594 308.164062 333.832031 308.914062 C 322.105469 297.730469 309.738281 287.226562 297.410156 276.714844 C 271.925781 254.988281 247.636719 234.273438 242.710938 219.429688 C 244.882812 222.359375 248.335938 225.554688 253.8125 229.011719 Z M 313.507812 232.367188 C 314.40625 230.488281 316.316406 229.59375 318.453125 230.351562 C 321.539062 231.453125 324.296875 237.339844 328.476562 246.246094 C 332.609375 255.058594 336.917969 263.78125 341.773438 272.226562 C 345.125 278.054688 348.6875 283.757812 352.445312 289.332031 C 354.65625 292.609375 356.929688 295.839844 359.265625 299.027344 C 360.664062 300.933594 365.449219 304.910156 362.453125 306.976562 C 358.996094 309.367188 349.035156 295.269531 347.035156 292.777344 C 342.261719 286.84375 337.882812 280.597656 333.800781 274.175781 C 329.511719 267.421875 325.550781 260.472656 321.773438 253.425781 C 319.515625 249.222656 317.558594 244.839844 315.429688 240.570312 C 314.273438 238.253906 312.40625 235.824219 313.226562 233.101562 C 313.304688 232.84375 313.398438 232.597656 313.507812 232.367188 Z M 428.804688 350.5625 C 425.953125 344.828125 419.558594 340.851562 412.292969 339.746094 C 405.859375 338.765625 398.871094 336.679688 393.210938 333.433594 C 384.066406 328.191406 379.074219 318.429688 372.59375 310.519531 C 348.847656 281.542969 338.445312 259.363281 331.558594 244.6875 C 326.839844 234.621094 323.988281 228.542969 319.542969 226.964844 C 316.894531 226.023438 314.71875 227.125 312.246094 227.917969 C 306.652344 229.710938 301.027344 229.128906 295.269531 228.96875 C 293.066406 228.792969 289.894531 228.847656 285.398438 228.941406 C 275.539062 229.152344 262.054688 229.445312 255.53125 225.921875 C 251.289062 223.632812 246.867188 219.691406 244.523438 215.324219 C 241.832031 210.308594 243.839844 203.273438 240.050781 199.050781 C 237.382812 196.074219 234.066406 195.1875 231.445312 197.683594 C 229.648438 199.390625 227.898438 201.136719 225.988281 202.714844 L 214.558594 212.15625 C 205.214844 219.882812 195.777344 226.929688 187.558594 235.921875 C 180.1875 243.980469 171.460938 254.566406 173.070312 266.285156 C 174 273.035156 185.175781 282.492188 190.226562 287.113281 C 202.488281 298.332031 226.898438 312.359375 238.597656 314.902344 C 240.027344 315.214844 241.398438 315.507812 242.726562 315.789062 C 261.320312 319.746094 269.804688 321.550781 295.566406 345.917969 C 318.914062 368.222656 352.609375 382.738281 381.386719 382.910156 C 397.628906 383.285156 421.890625 381.785156 429.011719 364.007812 C 431.03125 358.964844 430.699219 354.371094 428.804688 350.5625 " fill-opacity="1" fill-rule="nonzero"/><g fill="#000000" fill-opacity="1"><g transform="translate(100.650353, 455.632128)"><g><path d="M 23.40625 0 L 23.40625 -7.578125 L 18.609375 -8.578125 L 18.609375 -34.9375 L 13.46875 -34.9375 L 2.203125 -31.796875 L 4.296875 -24.609375 L 8.28125 -25.75 L 8.28125 -8.578125 L 3.5 -7.578125 L 3.5 0 Z M 23.40625 0 "/></g></g></g><g fill="#000000" fill-opacity="1"><g transform="translate(126.896286, 455.632128)"><g><path d="M 31.59375 -6.234375 L 31.59375 -28.84375 L 24.296875 -34.9375 L 9.484375 -34.9375 L 2.203125 -28.84375 L 2.203125 -6.234375 L 9.734375 0 L 24 0 C 25.269531 -1.03125 26.535156 -2.066406 27.796875 -3.109375 C 29.054688 -4.160156 30.320312 -5.203125 31.59375 -6.234375 Z M 19.96875 -26.296875 L 21.3125 -25.25 L 21.3125 -9.734375 L 19.90625 -8.578125 L 13.875 -8.578125 L 12.484375 -9.734375 L 12.484375 -25.25 L 13.828125 -26.296875 Z M 19.96875 -26.296875 "/></g></g></g><g fill="#000000" fill-opacity="1"><g transform="translate(160.676699, 455.632128)"><g><path d="M 31.59375 -6.234375 L 31.59375 -28.84375 L 24.296875 -34.9375 L 9.484375 -34.9375 L 2.203125 -28.84375 L 2.203125 -6.234375 L 9.734375 0 L 24 0 C 25.269531 -1.03125 26.535156 -2.066406 27.796875 -3.109375 C 29.054688 -4.160156 30.320312 -5.203125 31.59375 -6.234375 Z M 19.96875 -26.296875 L 21.3125 -25.25 L 21.3125 -9.734375 L 19.90625 -8.578125 L 13.875 -8.578125 L 12.484375 -9.734375 L 12.484375 -25.25 L 13.828125 -26.296875 Z M 19.96875 -26.296875 "/></g></g></g><g fill="#000000" fill-opacity="1"><g transform="translate(194.457111, 455.632128)"><g><path d="M 28.09375 -34.9375 L 17.5625 -34.9375 L 14.265625 -32.1875 L 13.28125 -34.9375 L 2.203125 -34.9375 L 2.203125 -27.296875 L 5.984375 -26.296875 L 5.984375 -8.640625 L 2.203125 -7.640625 L 2.203125 0 L 18.5625 0 L 18.5625 -7.640625 L 16.265625 -8.640625 L 16.265625 -25.296875 L 17.5625 -26.34375 L 23.609375 -26.34375 L 24.859375 -25.296875 L 24.859375 -8.640625 L 22.5625 -7.640625 L 22.5625 0 L 37.53125 0 L 37.53125 -7.640625 L 35.234375 -8.640625 L 35.234375 -25.296875 L 36.53125 -26.34375 L 42.5625 -26.34375 L 43.8125 -25.296875 L 43.8125 -8.640625 L 41.515625 -7.640625 L 41.515625 0 L 57.984375 0 L 57.984375 -7.640625 L 54.203125 -8.640625 L 54.203125 -29.046875 L 47.0625 -34.9375 L 36.53125 -34.9375 L 32.34375 -31.4375 Z M 28.09375 -34.9375 "/></g></g></g><g fill="#000000" fill-opacity="1"><g transform="translate(254.633157, 455.632128)"><g/></g></g><g fill="#000000" fill-opacity="1"><g transform="translate(273.793689, 455.632128)"><g><path d="M 35.1875 -7.484375 L 35.1875 -27.703125 L 26.453125 -34.9375 L 2.203125 -34.9375 L 2.203125 -27.296875 L 5.984375 -26.296875 L 5.984375 -8.578125 L 2.203125 -7.578125 L 2.203125 0 L 26.203125 0 Z M 16.3125 -26.296875 L 22.75 -26.296875 L 24.859375 -24.546875 L 24.859375 -10.375 L 22.65625 -8.578125 L 16.3125 -8.578125 Z M 16.3125 -26.296875 "/></g></g></g><g fill="#000000" fill-opacity="1"><g transform="translate(311.166723, 455.632128)"><g><path d="M 33.484375 -8.578125 L 26.75 -34.9375 L 6.59375 -34.9375 L 6.59375 -27.296875 L 9.828125 -26.296875 L 4.734375 -8.578125 L 0.890625 -7.578125 L 0.890625 0 L 15.875 0 L 15.875 -7.578125 L 13.421875 -8.578125 L 14.265625 -11.671875 L 21.8125 -11.671875 L 22.703125 -8.578125 L 20.0625 -7.578125 L 20.0625 0 L 37.78125 0 L 37.78125 -7.578125 Z M 17.921875 -25.5 L 20.15625 -17.671875 L 15.71875 -17.671875 Z M 17.921875 -25.5 "/></g></g></g><g fill="#000000" fill-opacity="1"><g transform="translate(349.837083, 455.632128)"><g><path d="M 30.84375 -29.25 L 24.0625 -34.9375 L 8.78125 -34.9375 L 2 -29.25 L 2 -19.71875 L 7.9375 -14.828125 L 19.90625 -12.828125 L 20.859375 -11.984375 L 20.859375 -9.625 L 19.609375 -8.578125 L 12.328125 -8.578125 L 11.328125 -12.234375 L 2 -12.234375 L 2 -5.890625 L 9.078125 0 L 24.109375 0 L 31.234375 -5.890625 L 31.234375 -15.875 L 25.40625 -20.40625 L 13.375 -22.40625 L 12.28125 -23.25 L 12.28125 -25.296875 L 13.578125 -26.296875 L 20.515625 -26.296875 L 21.515625 -22.65625 L 30.84375 -22.65625 Z M 30.84375 -29.25 "/></g></g></g><g fill="#000000" fill-opacity="1"><g transform="translate(383.118522, 455.632128)"><g><path d="M 38.921875 -27.296875 L 38.921875 -34.9375 L 22.5 -34.9375 L 22.5 -27.296875 L 24.75 -26.296875 L 24.75 -20.65625 L 16.3125 -20.65625 L 16.3125 -26.296875 L 18.609375 -27.296875 L 18.609375 -34.9375 L 2.203125 -34.9375 L 2.203125 -27.296875 L 5.984375 -26.296875 L 5.984375 -8.578125 L 2.203125 -7.578125 L 2.203125 0 L 18.609375 0 L 18.609375 -7.578125 L 16.3125 -8.578125 L 16.3125 -14.671875 L 24.75 -14.671875 L 24.75 -8.578125 L 22.5 -7.578125 L 22.5 0 L 38.921875 0 L 38.921875 -7.578125 L 35.140625 -8.578125 L 35.140625 -26.296875 Z M 38.921875 -27.296875 "/></g></g></g></svg>